<svg xmlns="http://www.w3.org/2000/svg" xmlns:xlink="http://www.w3.org/1999/xlink" width="2000" zoomAndPan="magnify" viewBox="0 0 1500 1499.999933" height="2000" preserveAspectRatio="xMidYMid meet" version="1.0"><defs><clipPath id="e5ac8c6b61"><path d="M 750 0 C 335.785156 0 0 335.785156 0 750 C 0 1164.214844 335.785156 1500 750 1500 C 1164.214844 1500 1500 1164.214844 1500 750 C 1500 335.785156 1164.214844 0 750 0 Z M 750 0 " clip-rule="nonzero"/></clipPath><clipPath id="c0eb5cda16"><path d="M 0 0 L 1500 0 L 1500 1500 L 0 1500 Z M 0 0 " clip-rule="nonzero"/></clipPath><clipPath id="7389944613"><path d="M 750 0 C 335.785156 0 0 335.785156 0 750 C 0 1164.214844 335.785156 1500 750 1500 C 1164.214844 1500 1500 1164.214844 1500 750 C 1500 335.785156 1164.214844 0 750 0 Z M 750 0 " clip-rule="nonzero"/></clipPath><clipPath id="d749112d93"><rect x="0" width="1500" y="0" height="1500"/></clipPath><clipPath id="298e57af4f"><path d="M 225 221.359375 L 740 221.359375 L 740 1281.859375 L 225 1281.859375 Z M 225 221.359375 " clip-rule="nonzero"/></clipPath><clipPath id="d2dc9bb9dc"><path d="M 764 221.359375 L 1279 221.359375 L 1279 1281.859375 L 764 1281.859375 Z M 764 221.359375 " clip-rule="nonzero"/></clipPath></defs><rect x="-150" width="1800" fill="#ffffff" y="-149.999993" height="1799.99992" fill-opacity="1"/><rect x="-150" width="1800" fill="#ffebc1" y="-149.999993" height="1799.99992" fill-opacity="1"/><g clip-path="url(#e5ac8c6b61)"><g transform="matrix(1, 0, 0, 1, 0, 0.000000000000112861)"><g clip-path="url(#d749112d93)"><g clip-path="url(#c0eb5cda16)"><g clip-path="url(#7389944613)"><rect x="-330" width="2160" fill="#22305c" height="2159.999904" y="-329.999985" fill-opacity="1"/></g></g></g></g></g><g clip-path="url(#298e57af4f)"><path fill="#ffebc1" d="M 731.652344 1186.886719 C 715.285156 1227.101562 688.027344 1256.570312 646.953125 1272.183594 C 576.519531 1298.960938 491.304688 1267.402344 449.921875 1199.347656 C 442.933594 1187.859375 437.011719 1175.84375 433.128906 1162.957031 C 431.597656 1157.882812 429.148438 1155.5625 423.648438 1154.382812 C 339.460938 1136.316406 275.527344 1068.539062 260.003906 982.03125 C 252.644531 941.015625 253.5 900.449219 264.695312 860.289062 C 266.179688 854.972656 264.945312 851.824219 261.855469 847.753906 C 208.445312 777.433594 213.652344 680.25 274.316406 615.292969 C 278.941406 610.339844 281.652344 605.386719 282.664062 598.457031 C 285.589844 578.46875 292.929688 559.84375 304.976562 543.617188 C 310.191406 536.59375 311.097656 530.328125 309.773438 521.90625 C 299.773438 458.070312 319.339844 405.273438 370.582031 365.230469 C 393.433594 347.371094 419.9375 337.769531 448.789062 335.738281 C 457.605469 335.117188 461.574219 332.652344 464.445312 323.800781 C 490.335938 244.035156 575.996094 201.960938 652.679688 230.78125 C 702.050781 249.332031 736.957031 297.960938 738.953125 351.03125 C 739.253906 358.996094 739.351562 366.972656 739.542969 374.941406 C 739.542969 376.394531 739.539062 377.851562 739.539062 379.304688 C 739.550781 386.5625 739.558594 393.820312 739.570312 401.074219 C 739.433594 403.964844 739.183594 406.851562 739.183594 409.734375 C 739.148438 607.601562 739.117188 805.472656 739.140625 1003.335938 C 739.140625 1031.226562 739.429688 1059.121094 739.585938 1087.007812 C 739.585938 1090.644531 739.585938 1094.273438 739.585938 1097.90625 C 738.441406 1127.703125 741.613281 1157.882812 731.652344 1186.886719 Z M 692.910156 438.265625 C 692.910156 411.914062 693.011719 387.238281 692.894531 362.566406 C 692.652344 313.398438 662.449219 276.777344 615.898438 269.023438 C 573.214844 261.914062 524.863281 291.804688 510.15625 333.945312 C 507.972656 340.203125 508.90625 342.449219 515.285156 344.644531 C 534.726562 351.332031 552.007812 361.988281 566.441406 376.6875 C 575.453125 385.863281 575.421875 397.90625 567.457031 407.109375 C 559.644531 416.136719 547.121094 418.207031 536.976562 411.960938 C 534.214844 410.257812 531.8125 407.984375 529.207031 406.027344 C 494.011719 379.617188 455.769531 373.546875 415.753906 392.398438 C 375.710938 411.265625 355.261719 444.753906 354.007812 488.617188 C 352.839844 529.847656 370.117188 562.929688 403.429688 587.554688 C 415.226562 596.277344 417.941406 608.753906 411.007812 619.84375 C 404.078125 630.925781 390.167969 633.835938 377.441406 626.675781 C 369.492188 622.203125 362.609375 616.328125 356.0625 609.996094 C 348.550781 602.730469 341.996094 594.621094 335.039062 585.566406 C 333.710938 588.917969 332.585938 591.113281 331.957031 593.441406 C 322.234375 629.523438 329.597656 660.773438 358.070312 686.167969 C 368.164062 695.171875 369.613281 707.019531 362.316406 717.242188 C 355.015625 727.472656 341.726562 730.136719 330.464844 722.84375 C 325.054688 719.34375 320.25 714.714844 315.75 710.042969 C 305.089844 698.976562 297.789062 685.5625 291.195312 671.546875 C 289.828125 672.714844 289.121094 673.074219 288.769531 673.652344 C 245.085938 744.667969 285.878906 844.863281 366.597656 864.496094 C 374.386719 866.394531 381.113281 869.203125 385.097656 876.4375 C 389.691406 884.792969 389.585938 893.261719 384.042969 901.0625 C 377.601562 910.121094 368.246094 912.246094 357.925781 910.050781 C 339.550781 906.136719 322.445312 898.785156 306.1875 888.90625 C 284.484375 982.816406 336.238281 1085.621094 422.675781 1105.644531 C 422.847656 1079.734375 428.832031 1055.300781 441.828125 1032.910156 C 449.167969 1020.269531 462.46875 1016.671875 474.5 1023.230469 C 486.320312 1029.675781 490.011719 1043.144531 483.070312 1056.03125 C 478.925781 1063.726562 475.347656 1071.5625 473.160156 1080.046875 C 460.347656 1129.734375 483.5 1186.589844 529.742188 1215.570312 C 565.589844 1238.035156 603.898438 1243.40625 642.34375 1223.007812 C 679.941406 1203.058594 693.648438 1169.222656 693.273438 1127.863281 C 692.6875 1063.636719 692.996094 999.402344 692.933594 935.171875 C 692.929688 931.742188 692.929688 928.320312 692.929688 923.75 C 665.636719 937.0625 638.089844 943.585938 609.53125 941.007812 C 592.019531 939.425781 581.546875 947.542969 572 959.546875 C 563.882812 969.75 559.800781 981.601562 558.296875 994.488281 C 556.488281 1010.019531 546.339844 1018.851562 532.328125 1017.40625 C 518.835938 1016.015625 510.246094 1004.429688 511.957031 989.117188 C 514.347656 967.714844 522.421875 948.382812 535.871094 931.710938 C 540.703125 925.71875 539.757812 923.941406 533.515625 920.761719 C 503.738281 905.613281 480.015625 883.648438 462.519531 855.210938 C 459.445312 850.214844 456.203125 849.621094 451.035156 850.289062 C 426.355469 853.488281 403.535156 847.808594 382.519531 834.78125 C 367.960938 825.757812 363.964844 811.585938 372.054688 798.933594 C 379.582031 787.160156 394.734375 785.296875 408.402344 794.953125 C 415.730469 800.128906 423.65625 802.882812 432.429688 804.207031 C 439.828125 805.324219 441.769531 803.433594 440.253906 795.761719 C 436.292969 775.667969 435.871094 755.355469 440.429688 735.28125 C 443.523438 721.640625 455.074219 714.3125 468.011719 716.839844 C 480.472656 719.273438 488.796875 731.179688 485.953125 744.722656 C 475.515625 794.421875 502.160156 857.378906 562.101562 883.65625 C 604.761719 902.359375 646.804688 899.9375 686.210938 873.25 C 690.109375 870.609375 693.15625 867.933594 693.085938 862.0625 C 692.59375 818.882812 692.46875 775.703125 692.5 732.519531 C 692.5 726.195312 691.0625 724.554688 684.464844 725.9375 C 624.800781 738.464844 571.585938 702.519531 560.890625 642.789062 C 551.476562 590.207031 505.785156 557.898438 453.757812 567.039062 C 439.152344 569.605469 426.886719 561.84375 424.273438 548.382812 C 421.660156 534.972656 430.234375 523.570312 445.164062 520.503906 C 470.859375 515.234375 495.746094 518.921875 519.894531 528.011719 C 525.484375 530.113281 527.734375 530.402344 529.722656 524.148438 C 532.351562 515.867188 539.023438 511.355469 547.425781 509.949219 C 564.574219 507.082031 576.847656 519.851562 573.960938 537.351562 C 572.375 546.980469 568.820312 557.3125 575.273438 565.847656 C 592.476562 588.589844 601.9375 614.148438 608.683594 641.699219 C 617.085938 676.015625 655.652344 691.824219 685.546875 675.378906 C 690.777344 672.5 693.238281 669.308594 693.195312 662.71875 C 692.816406 609.742188 692.945312 556.757812 692.925781 503.777344 C 692.925781 500.203125 693.109375 496.914062 690.324219 493.695312 C 670.660156 470.980469 631.554688 467.777344 609.6875 487.335938 C 598.355469 497.46875 583.070312 497.417969 573.910156 487.210938 C 564.773438 477.027344 565.875 462.871094 577.023438 452.308594 C 587.457031 442.417969 599.882812 435.828125 613.601562 431.65625 C 640.476562 423.476562 666.519531 426.964844 692.910156 438.265625 Z M 692.910156 438.265625 " fill-opacity="1" fill-rule="evenodd"/></g><g clip-path="url(#d2dc9bb9dc)"><path fill="#ffebc1" d="M 764.394531 381.472656 C 765.761719 362.726562 763.296875 343.738281 768.488281 325.230469 C 783.023438 273.453125 815.71875 238.574219 867.871094 225.863281 C 921.796875 212.71875 968.96875 228.242188 1007.308594 268.710938 C 1023.234375 285.519531 1034.632812 305.253906 1041.332031 327.464844 C 1042.898438 332.648438 1044.710938 334.949219 1050.695312 335.351562 C 1145.652344 341.773438 1209.054688 422.585938 1193.304688 517.136719 C 1192.269531 523.371094 1192.933594 528.0625 1196.433594 533.261719 C 1209.8125 553.140625 1217.332031 575.316406 1220.578125 598.953125 C 1221.34375 604.511719 1222.960938 608.976562 1227.140625 613.222656 C 1289.730469 676.851562 1295.878906 775.003906 1241.457031 845.578125 C 1236.992188 851.363281 1239.433594 855.773438 1240.554688 860.59375 C 1254.882812 922.261719 1251.660156 982.566406 1224.085938 1040.042969 C 1194.90625 1100.867188 1147.425781 1140.058594 1080.679688 1154.011719 C 1074.058594 1155.394531 1073.042969 1159.054688 1071.160156 1163.769531 C 1046.082031 1226.605469 1001.925781 1267.164062 934.355469 1279.707031 C 911.96875 1283.863281 889.601562 1281.546875 867.511719 1276.480469 C 847.796875 1269.265625 829.144531 1260.3125 813.113281 1246.285156 C 785.167969 1221.839844 770.214844 1190.792969 765.007812 1154.527344 C 764.90625 1152.351562 764.804688 1150.175781 764.703125 1148 C 764.617188 1141.460938 764.53125 1134.925781 764.441406 1128.390625 C 764.441406 1125.488281 764.441406 1122.585938 764.441406 1119.679688 C 764.597656 1116.433594 764.886719 1113.183594 764.886719 1109.9375 C 764.933594 906.972656 764.976562 704 764.9375 501.03125 C 764.933594 461.171875 764.589844 421.324219 764.394531 381.472656 Z M 1148.632812 482.28125 C 1148.632812 480.105469 1148.894531 477.957031 1148.59375 475.894531 C 1142.609375 435.003906 1121.722656 404.703125 1082.878906 389.570312 C 1043.324219 374.164062 1005.996094 379.632812 973.015625 407.578125 C 960.257812 418.382812 946.734375 418.953125 937.242188 408.695312 C 927.535156 398.210938 929.054688 383.125 941.25 372.148438 C 951.269531 363.121094 963.011719 356.714844 974.664062 349.996094 C 981.589844 346.007812 994.257812 348.226562 994.875 338.113281 C 995.359375 330.113281 989.246094 321.960938 984.449219 314.644531 C 982.664062 311.917969 980.847656 309.179688 978.753906 306.683594 C 952.488281 275.382812 919.582031 261.621094 879.140625 271.347656 C 842.582031 280.136719 815.066406 309.910156 812.023438 346.898438 C 809.578125 376.671875 811.527344 406.804688 811.527344 437.5625 C 815.382812 436.09375 818.65625 434.695312 822.023438 433.585938 C 860.363281 420.925781 895.730469 425.535156 926.839844 452.449219 C 938.34375 462.40625 939.429688 476.15625 930.519531 486.125 C 921.390625 496.34375 906.289062 497.117188 895.410156 487.929688 C 872.816406 468.851562 842.230469 469.417969 818.933594 489.0625 C 813.574219 493.585938 811.074219 498.429688 811.085938 505.777344 C 811.277344 623.722656 811.230469 741.671875 810.992188 859.613281 C 810.976562 866.21875 813.1875 870.164062 818.515625 873.753906 C 854.636719 898.117188 893.679688 902.066406 933.730469 887.378906 C 980.007812 870.410156 1008.679688 836.871094 1018.476562 788.019531 C 1021.761719 771.636719 1031.992188 763.894531 1046.667969 766.761719 C 1059.636719 769.289062 1068.160156 782.183594 1064.929688 795.449219 C 1049.308594 859.546875 1012.640625 906.074219 950.453125 930.640625 C 943.375 933.433594 944.007812 935.472656 947.308594 940.902344 C 954.304688 952.417969 959.296875 964.933594 961.230469 978.339844 C 963.109375 991.371094 954.789062 1002.703125 942.617188 1004.703125 C 929.535156 1006.859375 918.84375 999.828125 915.632812 986.902344 C 914.757812 983.394531 914.28125 979.769531 913.230469 976.316406 C 906.394531 953.917969 893.648438 943.417969 871.027344 941.292969 C 868.152344 941.019531 865.292969 940.472656 862.429688 940.03125 C 844.96875 937.359375 828.410156 931.457031 811.269531 924.515625 C 811.269531 998.804688 809.898438 1071.730469 811.828125 1144.574219 C 812.847656 1183.097656 833.738281 1211.992188 870.085938 1226.726562 C 912.386719 1243.875 951.886719 1234.921875 986.199219 1206.875 C 1026.640625 1173.820312 1040.816406 1130.207031 1032.675781 1078.546875 C 1026.367188 1038.507812 1049.972656 995.023438 1085.941406 977.324219 C 1100.152344 970.332031 1113.316406 973.578125 1119.84375 985.6875 C 1126.550781 998.128906 1121.695312 1011.699219 1107.601562 1019.265625 C 1085.5 1031.136719 1077.058594 1050.125 1078.777344 1074.339844 C 1079.289062 1081.5625 1081.21875 1088.734375 1081.238281 1095.929688 C 1081.261719 1104.476562 1083.679688 1106.472656 1092 1103.4375 C 1108.523438 1097.398438 1124.007812 1089.597656 1137.273438 1078.097656 C 1195.367188 1027.742188 1209.09375 962.621094 1199.675781 889.757812 C 1198.59375 881.359375 1196.011719 881.066406 1188.957031 884.210938 C 1165.675781 894.578125 1141.289062 899.183594 1115.792969 895.316406 C 1101.816406 893.195312 1092.585938 881.121094 1094.714844 868.421875 C 1097.074219 854.351562 1108.738281 846.179688 1123.246094 848.242188 C 1152.960938 852.46875 1178.582031 843.113281 1199.832031 822.851562 C 1237.003906 787.402344 1242.96875 711.691406 1212.417969 669.417969 C 1204.492188 688.125 1193.707031 704.734375 1178.800781 718.320312 C 1166.382812 729.640625 1152.296875 729.699219 1143.175781 719.140625 C 1133.832031 708.328125 1135.835938 693.296875 1148.4375 682.9375 C 1160.664062 672.878906 1168.308594 660.09375 1172.464844 645.019531 C 1183.753906 604.085938 1165.648438 553.902344 1129.84375 527.117188 C 1123.386719 522.285156 1116.988281 517.621094 1115.355469 508.941406 C 1111.726562 489.675781 1125.136719 478.730469 1148.632812 482.28125 Z M 1148.632812 482.28125 " fill-opacity="1" fill-rule="evenodd"/></g><path fill="#ffebc1" d="M 896.511719 657.363281 C 896.71875 629.875 902.867188 608.097656 914.324219 587.898438 C 916.851562 583.4375 917.34375 580.960938 913.132812 577.160156 C 905.894531 570.625 899.796875 562.925781 892.34375 556.476562 C 882.347656 547.828125 881.882812 533.003906 890.5 523.417969 C 898.769531 514.210938 914.242188 513.550781 923.765625 522.367188 C 929.875 528.019531 935.617188 534.089844 941.289062 540.183594 C 946.480469 545.761719 950.585938 546.042969 957.546875 541.394531 C 988.050781 521.042969 1021.617188 513.40625 1057.984375 520.695312 C 1074.050781 523.914062 1082.027344 534.949219 1079.105469 549.234375 C 1076.304688 562.917969 1065.164062 569.464844 1049.261719 566.761719 C 983.511719 555.589844 929.949219 611.402344 945.914062 674.539062 C 949.9375 690.445312 958.234375 703.78125 970.8125 714.429688 C 983.617188 725.269531 985.804688 738.210938 976.847656 749.40625 C 967.726562 760.804688 953.394531 761.417969 940.453125 750.117188 C 911.175781 724.542969 897.390625 691.746094 896.511719 657.363281 Z M 896.511719 657.363281 " fill-opacity="1" fill-rule="evenodd"/></svg>